<?xml version="1.0" encoding="utf-8"?>
<!-- Generator: Adobe Illustrator 19.2.1, SVG Export Plug-In . SVG Version: 6.00 Build 0)  -->
<svg version="1.1" id="Layer_1" xmlns="http://www.w3.org/2000/svg" xmlns:xlink="http://www.w3.org/1999/xlink" x="0px" y="0px"
	 viewBox="0 0 247.8 74.5" style="enable-background:new 0 0 247.8 74.5;" xml:space="preserve">
<style type="text/css">
	.st0{fill:#FFFFFF;}
	.st1{fill:#2D8796;}
	.st2{fill:#3FBDDB;}
	.st3{fill:#543E51;}
	.st4{fill:#843860;}
	.st5{fill:#F4B44D;}
	.st6{fill:#776900;}
	.st7{fill:#978A00;}
	.st8{fill:none;stroke:#D3D3D3;stroke-width:9;stroke-linecap:round;stroke-linejoin:round;stroke-miterlimit:10;}
	.st9{fill:#CCCCCC;}
	.st10{fill:#D9D9D9;}
	.st11{fill:none;stroke:#CCCCCC;stroke-width:3;stroke-linecap:round;stroke-linejoin:round;stroke-miterlimit:10;}
	.st12{fill:#A83920;}
	.st13{fill:#5B1809;}
	.st14{fill:#505B75;}
	.st15{fill:#DF9A78;}
	.st16{fill:#FC9C46;}
	.st17{fill:#E1578A;}
</style>
<g>
	<g>
		<path class="st14" d="M94.8,33h-5.7v-2.2c0-0.2-0.1-0.4-0.2-0.6c-0.2-0.2-0.4-0.3-0.6-0.3h-2.4c-0.2,0-0.4,0.1-0.6,0.3
			c-0.2,0.2-0.2,0.4-0.2,0.6v4.9c0,0.2,0.1,0.4,0.2,0.6c0.2,0.2,0.4,0.3,0.6,0.3h3.9c3.6,0.1,5.3,1.9,5.3,5.7v6
			c0,3.8-1.8,5.7-5.3,5.7h-5.1c-3.6,0-5.3-1.9-5.3-5.7v-2.9h5.7v3.1c0,0.2,0.1,0.4,0.2,0.6c0.2,0.2,0.4,0.3,0.6,0.3h2.7
			c0.2,0,0.4-0.1,0.6-0.3c0.2-0.2,0.2-0.4,0.2-0.6V43c0-0.2-0.1-0.4-0.2-0.6c-0.2-0.2-0.4-0.3-0.6-0.3h-3.9c-3.6,0-5.3-1.9-5.3-5.7
			v-5.5c0-3.8,1.8-5.7,5.3-5.7h4.8c3.6,0,5.3,1.9,5.3,5.7V33z"/>
		<path class="st14" d="M109.1,32.1c3.6,0,5.3,1.9,5.3,5.7v6.8h-9.8v4.4c0,0.2,0.1,0.4,0.2,0.6c0.2,0.2,0.4,0.3,0.6,0.3h2.4
			c0.2,0,0.4-0.1,0.6-0.3c0.2-0.2,0.2-0.4,0.2-0.6v-2.3h5.8v1.6c0,3.8-1.8,5.7-5.3,5.7h-4.9c-3.6,0-5.3-1.9-5.3-5.7V37.8
			c0-3.8,1.8-5.7,5.3-5.7H109.1z M104.6,40.8h4v-3.9c0-0.2-0.1-0.4-0.2-0.6c-0.2-0.2-0.4-0.3-0.6-0.3h-2.4c-0.2,0-0.4,0.1-0.6,0.3
			c-0.2,0.2-0.2,0.4-0.2,0.6V40.8z"/>
		<path class="st14" d="M123.3,53.5h-5.8v-21h5.2v1.1c0.9-1,2.2-1.5,4-1.5h0.9c3.6,0,5.3,1.9,5.3,5.7v15.7h-5.8V37.1
			c0-0.2-0.1-0.4-0.2-0.6c-0.2-0.2-0.4-0.3-0.6-0.3h-2.4c-0.2,0-0.4,0.1-0.6,0.3c-0.2,0.2-0.2,0.4-0.2,0.6V53.5z"/>
		<path class="st14" d="M146.9,40.3c3.6,0,5.3,1.9,5.3,5.7v2.2c0,3.8-1.8,5.7-5.3,5.7h-4.8c-3.6,0-5.3-1.9-5.3-5.7v-1.3h5.3v1.9
			c0,0.2,0.1,0.4,0.2,0.6s0.4,0.3,0.6,0.3h3.5c0.2,0,0.4-0.1,0.6-0.3c0.2-0.2,0.2-0.4,0.2-0.6v-2.6c0-0.2-0.1-0.4-0.2-0.6
			c-0.2-0.2-0.4-0.3-0.6-0.3h-4.4c-3.6,0-5.3-1.9-5.3-5.7v-1.9c0-3.8,1.8-5.7,5.3-5.7h4.5c3.6,0,5.3,1.9,5.3,5.7v0.8h-5.3v-1.3
			c0-0.2-0.1-0.4-0.2-0.6s-0.4-0.3-0.6-0.3h-3.3c-0.2,0-0.4,0.1-0.6,0.3c-0.2,0.2-0.2,0.4-0.2,0.6v2.3c0,0.2,0.1,0.4,0.2,0.6
			c0.2,0.2,0.4,0.3,0.6,0.3H146.9z"/>
		<path class="st14" d="M165.4,32.5h5.8v21h-5.2v-1.1c-0.9,1-2.2,1.5-4,1.5H161c-3.6,0-5.3-1.9-5.3-5.7V32.5h5.8v16.4
			c0,0.2,0.1,0.4,0.2,0.6c0.2,0.2,0.4,0.3,0.6,0.3h2.4c0.2,0,0.4-0.1,0.6-0.3c0.2-0.2,0.2-0.4,0.2-0.6V32.5z"/>
		<path class="st14" d="M182.7,50.2h1.7v3.7h-4c-3.6,0-5.3-1.9-5.3-5.7V28h5.8v4.6h3.6v4.2h-3.6v11.4c0,0.8,0.2,1.3,0.5,1.6
			C181.6,50,182.1,50.2,182.7,50.2z"/>
		<path class="st14" d="M197.6,32.1c3.6,0,5.3,1.9,5.3,5.7v6.8h-9.8v4.4c0,0.2,0.1,0.4,0.2,0.6c0.2,0.2,0.4,0.3,0.6,0.3h2.4
			c0.2,0,0.4-0.1,0.6-0.3c0.2-0.2,0.2-0.4,0.2-0.6v-2.3h5.8v1.6c0,3.8-1.8,5.7-5.3,5.7h-4.9c-3.6,0-5.3-1.9-5.3-5.7V37.8
			c0-3.8,1.8-5.7,5.3-5.7H197.6z M193.2,40.8h4v-3.9c0-0.2-0.1-0.4-0.2-0.6c-0.2-0.2-0.4-0.3-0.6-0.3H194c-0.2,0-0.4,0.1-0.6,0.3
			c-0.2,0.2-0.2,0.4-0.2,0.6V40.8z"/>
		<path class="st14" d="M221.7,40.8h-5.8v-3.7c0-0.2-0.1-0.4-0.2-0.6c-0.2-0.2-0.4-0.3-0.6-0.3h-2.4c-0.2,0-0.4,0.1-0.6,0.3
			c-0.2,0.2-0.2,0.4-0.2,0.6v11.9c0,0.2,0.1,0.4,0.2,0.6c0.2,0.2,0.4,0.3,0.6,0.3h2.4c0.2,0,0.4-0.1,0.6-0.3
			c0.2-0.2,0.2-0.4,0.2-0.6v-3.7h5.8v3c0,3.8-1.8,5.7-5.3,5.7h-4.9c-3.6,0-5.3-1.9-5.3-5.7V37.8c0-3.8,1.8-5.7,5.3-5.7h4.9
			c3.6,0,5.3,1.9,5.3,5.7V40.8z"/>
	</g>
</g>
<g>
	<path class="st10" d="M36.1,56.6c-2.1-0.8-3.8-2.6-4.3-4s-0.2-2.6-0.2-3.1c-4.6,0-5.8-0.3-7.8-2.1c-1.5-1.3-2.3-5.1-2.1-7.8
		c0.1-1.4,0.8-3.3,1.3-4.3c0.7-1.5,3.7-5.3,7.6-7.3c2.8-1.5,7.3-2.6,12.5-2.6c10.8,0,18.3,7.3,20.4,10.6c2.2,3.3,5.1,9.5,3.6,13.8
		c-0.6,2.3-1.9,4.8-4.3,5s-4.4-1-6.4-1.1c-1.9-0.1-7.4,0.9-12,2.5C41.5,57.1,38.2,57.3,36.1,56.6z"/>
	<g>
		<g>
			<path class="st0" d="M29.1,45.3c-0.6,0-1.1-0.1-1.6-0.4c-1.8-1-2.2-3.6-2.3-3.7c0-0.2,0.1-0.3,0.3-0.4c0.2,0,0.3,0.1,0.4,0.3
				c0,0,0.4,2.4,1.9,3.3c0.7,0.4,1.7,0.4,2.7,0c2.5-1,2.7-3.4,2.9-4.7c0-0.1,0.1-0.2,0.1-0.2c0.1-0.1,0.2-0.1,0.3,0
				c1.1,0.3,2.3-0.1,3.2-1.1c0.1-0.1,0.2-0.1,0.3-0.1c0.1,0,0.2,0.1,0.2,0.2c0.1,0.5,0.6,1,1.2,1.2c0.4,0.1,1.1,0.2,1.9-0.5
				c0.1-0.1,0.3-0.1,0.4,0c0.1,0.1,0.1,0.3,0,0.4c-0.7,0.7-1.6,0.9-2.5,0.7c-0.7-0.2-1.2-0.7-1.5-1.2c-1,0.8-2.1,1.1-3.1,1
				c-0.2,1.4-0.6,3.9-3.2,4.9C30.2,45.2,29.6,45.3,29.1,45.3z"/>
			<path class="st0" d="M44,53.5c-0.1,0-0.2-0.1-0.3-0.1c-0.9-1.3-2-1.7-2.8-1.8c-1.3-0.2-2.7,0.3-3.7,1.2c-0.1,0.1-0.3,0.1-0.4,0
				c-0.1-0.1-0.1-0.3,0-0.4c1.1-1,2.7-1.5,4.2-1.3c1.1,0.1,2.1,0.6,2.8,1.5c0.3-1.4,1-2.1,1.6-2.4c1-0.5,2.3-0.5,3.7,0.1
				c-0.6-1.3-0.7-2.7-0.3-3.9c0.4-1.1,1.1-1.9,2.1-2.3c0.2-0.1,0.3,0,0.4,0.2c0.1,0.2,0,0.3-0.2,0.4c-0.8,0.3-1.5,1-1.8,1.9
				c-0.4,1.3-0.2,2.8,0.7,4.2c0.1,0.1,0.1,0.3,0,0.4c-0.1,0.1-0.3,0.1-0.4,0.1c-1.5-0.8-3-1-4-0.5c-0.8,0.4-1.3,1.3-1.4,2.6
				C44.3,53.3,44.2,53.4,44,53.5C44.1,53.5,44.1,53.5,44,53.5z"/>
			<path class="st0" d="M27.7,36.3c-0.2,0-0.3-0.1-0.3-0.3c-0.1-1.3,0.6-2.5,1.7-3.4c1-0.7,2.1-1.1,3-0.9c0.4-1,1.4-1.7,2.7-2.1
				c1.2-0.3,2.7-0.2,3.6,0.7c2.6-1.5,5.2-0.9,6.2-0.1c1.7,1.3,1.7,2.9,1.7,3c0,0.2-0.2,0.3-0.3,0.3c-0.2,0-0.3-0.2-0.3-0.3
				c0-0.1,0-1.4-1.4-2.5c-1-0.7-3.4-1.1-5.7,0.3c-0.1,0.1-0.3,0.1-0.4-0.1c-0.6-0.7-1.8-1-3.1-0.6c-1,0.2-2.1,0.9-2.4,1.9
				c0,0.1-0.1,0.2-0.2,0.2c-0.1,0-0.2,0.1-0.3,0c-0.8-0.3-1.9,0-2.8,0.7c-1,0.7-1.5,1.8-1.5,2.9C28,36.2,27.8,36.3,27.7,36.3
				C27.7,36.3,27.7,36.3,27.7,36.3z"/>
			<path class="st0" d="M32.1,49.9c-0.1,0-0.3-0.1-0.3-0.3c0-0.2,0.1-0.3,0.3-0.4c0.1,0,7.2-1.3,11.3-4.2c1.2-0.8,2.1-1.8,2.9-2.8
				c1.3-1.5,2.5-2.9,4.6-3.1c1.7-0.2,3.2,0.4,3.9,1.7c0.8,1.3,0.5,3-0.7,4.6c-0.1,0.1-0.3,0.2-0.4,0.1c-0.1-0.1-0.2-0.3-0.1-0.4
				c1-1.4,1.3-2.8,0.6-3.9c-0.6-1-1.8-1.6-3.3-1.4c-1.9,0.2-3,1.5-4.2,2.9c-0.8,0.9-1.8,2-3,2.9C39.5,48.5,32.5,49.8,32.1,49.9
				C32.2,49.9,32.1,49.9,32.1,49.9z"/>
			<path class="st0" d="M31.7,50c-0.1,0-0.3-0.1-0.3-0.3c0-0.2,0.1-0.3,0.2-0.4c0.2,0,4.2-0.9,4.5-6.8c0-0.2,0.2-0.3,0.3-0.3
				c0.2,0,0.3,0.2,0.3,0.3c-0.2,3.3-1.5,5.2-2.6,6.1C32.9,49.8,31.8,50,31.7,50C31.7,50,31.7,50,31.7,50z"/>
			<path class="st0" d="M40.4,47.1c-0.1,0-0.2,0-0.2-0.1c-0.1-0.1-0.1-0.3,0-0.4c0,0,4.1-3.9,4.1-7.6c0-1.5-0.8-4.8-7.8-4.8
				c-3.8,0-7.2,2.9-7.2,6.2c0,0.2-0.1,0.3-0.3,0.3s-0.3-0.1-0.3-0.3c0-3.6,3.6-6.8,7.8-6.8c5.3,0,8.4,2,8.4,5.5
				c0,1.7-0.7,3.5-2.1,5.5c-1,1.5-2.1,2.4-2.1,2.5C40.6,47,40.5,47.1,40.4,47.1z"/>
			<path class="st0" d="M47.3,37.7c-1.6,0-3.5-0.9-4.4-1.8c-0.1-0.1-0.1-0.3,0-0.4c0.1-0.1,0.3-0.1,0.4,0c1,1,3,1.8,4.3,1.6
				c0.7-0.1,1.3-0.4,1.6-0.9c0.6-1,0.3-1.6,0-2.3c-0.3-0.7-0.7-1.5-0.1-2.5c0.3-0.6,0.8-1,1.3-1.1c1-0.3,2,0.4,2.1,0.4
				c0.1,0.1,0.2,0.3,0.1,0.4c-0.1,0.1-0.3,0.2-0.4,0.1c0,0-0.8-0.5-1.6-0.3c-0.4,0.1-0.7,0.4-0.9,0.8c-0.4,0.8-0.2,1.3,0.1,1.9
				c0.3,0.8,0.7,1.6,0,2.9c-0.4,0.7-1.1,1.1-2.1,1.2C47.6,37.6,47.4,37.7,47.3,37.7z"/>
			<path class="st0" d="M52,53.4C52,53.4,51.9,53.4,52,53.4c-0.2-0.1-0.3-0.2-0.3-0.4c0.6-2.2,2-4,3.8-4.7c1-0.4,2.6-0.6,4.4,0.3
				c-0.6-1.9,0.1-3.8,2.2-5.7c-1.8-0.1-3.1-0.8-3.9-1.9c-0.6-0.9-0.8-2-0.4-3.3c-1.5,0.3-2.8,0-3.6-0.8c-0.8-0.9-1.1-2.2-0.6-3.9
				c0-0.2,0.2-0.3,0.4-0.2c0.2,0,0.3,0.2,0.2,0.4c-0.4,1.4-0.2,2.5,0.5,3.2c0.7,0.7,1.9,0.9,3.5,0.6c0.1,0,0.2,0,0.3,0.1
				c0.1,0.1,0.1,0.2,0.1,0.3c-0.5,1.3-0.4,2.4,0.2,3.3c0.7,1,2.2,1.6,4.1,1.6c0.1,0,0.3,0.1,0.3,0.2c0,0.1,0,0.3-0.1,0.3
				c-2.6,2.2-3.4,4.3-2.2,6.3c0.1,0.1,0,0.3-0.1,0.4c-0.1,0.1-0.3,0.1-0.4,0c-1.6-1.1-3.2-1.3-4.7-0.8c-1.6,0.6-2.9,2.2-3.4,4.2
				C52.3,53.3,52.1,53.4,52,53.4z"/>
		</g>
	</g>
</g>
<g>
	<ellipse transform="matrix(0.7195 -0.6945 0.6945 0.7195 -0.8005 34.8817)" class="st16" cx="42.8" cy="18.4" rx="2.6" ry="2.6"/>
	<ellipse transform="matrix(0.7195 -0.6945 0.6945 0.7195 0.8501 41.7664)" class="st2" cx="52.1" cy="19.8" rx="2.6" ry="2.6"/>
	<ellipse transform="matrix(0.7195 -0.6945 0.6945 0.7195 -4.3946 28.782)" class="st17" cx="33.4" cy="19.8" rx="2.6" ry="2.6"/>
</g>
</svg>
